# xmcd CD database file
#
# Track frame offsets:
#	150
#	15637
#	36838
#	56198
#	75591
#	92754
#	109593
#	126804
#	147011
#	161719
#	181184
#	199770
#	216256
#	232742
#	248303
#	268035
#	286119
#	303177
#	322744
#	340309
#
# Disc length: 4760 seconds
#
# Revision: 2
# Processed by: cddbd v1.5.2PL0 Copyright (c) Steve Scherf et al.
# Submitted via: CDex 1.51
#
DISCID=06129614
DTITLE=Various Artist - ZMPP-13-CD-2
DYEAR=1900
DGENRE=Blues
TTITLE0=Keane - Silenced By The Night
TTITLE1=Fun - Some Nights
TTITLE2=Gotye Ft Kimbra - Somebody That I Used To Know
TTITLE3=Gotye Ft Kimbra - Somebody That I Used To Know (for solo male)
TTITLE4=Florence and The Machine - Spectrum (say my name)
TTITLE5=Nicki Minaj - Starships
TTITLE6=Kelly Clarkson - Stronger
TTITLE7=Muse - Survival
TTITLE8=Lawson - Taking Over Me
TTITLE9=Will.i.am Ft Eva Simons - This Is Love
TTITLE10=David Guetta Ft Sia - Titanium
TTITLE11=Cover Drive - Twilight (duet)
TTITLE12=Cover Drive - Twilight (for solo female)
TTITLE13=One Direction - Up All Night
TTITLE14=Fun FT Janelle Monae - We Are Young
TTITLE15=Calvin Harris Ft Example - We'll Be Coming Back
TTITLE16=Lawson - When She Was Mine
TTITLE17=Rihanna - Where Have You Been
TTITLE18=Katy Perry - Wide Awake
TTITLE19=Tulisa - Young
EXTD=
EXTT0=
EXTT1=
EXTT2=
EXTT3=
EXTT4=
EXTT5=
EXTT6=
EXTT7=
EXTT8=
EXTT9=
EXTT10=
EXTT11=
EXTT12=
EXTT13=
EXTT14=
EXTT15=
EXTT16=
EXTT17=
EXTT18=
EXTT19=
PLAYORDER=
